# xmcd CD database file
#
# Track frame offsets:
#	150
#	12497
#	33029
#	55727
#	75592
#	94779
#	119585
#	137217
#	155269
#	164704
#	174169
#	191453
#	199572
#	211612
#	232515
#	254747
#
# Disc length: 3617 seconds
#
# Revision: 0
# Processed by: cddbd v1.4PL0 Copyright (c) Steve Scherf et al.
# Submitted via: CDex 1.40Release
#
DISCID=c60e1f10
DTITLE=Robert B. Jones - In the Tradition
DYEAR=2002
DGENRE=Blues
TTITLE0=No More
TTITLE1=My Daddy's Blues
TTITLE2=Darkness of Blackness
TTITLE3=New Aberdeen Blues
TTITLE4=I Wrestle with the Angel
TTITLE5='Berta, 'Berta
TTITLE6=Marie
TTITLE7=Pony Blues
TTITLE8=Mandolin Boogie
TTITLE9=Baby, Please Dont' Go
TTITLE10=Broke Down Engine
TTITLE11=Fox Chase
TTITLE12=Kindhearted Woman
TTITLE13=Going to Brownsville
TTITLE14=Preach My Word
TTITLE15=Crown Vic Blues
EXTD=YEAR: 2002 ID3G: 0
EXTT0=
EXTT1=
EXTT2=
EXTT3=
EXTT4=
EXTT5=
EXTT6=
EXTT7=
EXTT8=
EXTT9=
EXTT10=
EXTT11=
EXTT12=
EXTT13=
EXTT14=
EXTT15=
PLAYORDER=
